<svg height="48" viewBox="0 0 48 48" width="48" xmlns="http://www.w3.org/2000/svg"><g fill="none" fill-rule="evenodd"><circle cx="24" cy="24" fill="#f7f8fa" r="23" stroke="#f0f2fa" stroke-width="2"/><g transform="translate(13 16)"><path d="m1.991155 0h18.01769c1.1014811 0 1.991155.89547804 1.991155 2.00010618v12.99978762c0 1.1100478-.8914705 2.0001062-1.991155 2.0001062h-18.01769c-1.10148105 0-1.991155-.895478-1.991155-2.0001062v-12.99978762c0-1.11004777.89147046-2.00010618 1.991155-2.00010618zm1.00224268 15h16.01320462c.5484514 0 .9933977-.4470447.9933977-.9985023v-11.00299537c0-.5510129-.4447593-.99850233-.9933977-.99850233h-16.01320462c-.54845139 0-.99339768.44704472-.99339768.99850233v11.00299537c0 .5510129.44475929.9985023.99339768.9985023zm12.51121332-10c.2735958 0 .495389.23193359.495389.5 0 .27614237-.2157526.5-.495389.5h-2.009222c-.2735958 0-.495389-.23193359-.495389-.5 0-.27614237.2157526-.5.495389-.5zm3.0043838 3c.2711747 0 .4910052.23193359.4910052.5 0 .27614237-.2278805.5-.4910052.5h-5.0179896c-.2711747 0-.4910052-.23193359-.4910052-.5 0-.27614237.2278805-.5.4910052-.5zm0 3c.2711747 0 .4910052.2319336.4910052.5 0 .2761424-.2278805.5-.4910052.5h-5.0179896c-.2711747 0-.4910052-.2319336-.4910052-.5 0-.2761424.2278805-.5.4910052-.5z" fill="#61708f"/><g stroke="#61708f"><path d="m6.57317418 8-2.07317418 4h6l-.6893629-1.3441995" stroke-linecap="round" stroke-linejoin="round"/><circle cx="7.5" cy="6.5" fill="#f7f8fa" r="2.5"/></g></g></g></svg>